<?xml version="1.0" encoding="utf-8"?>
<!-- Generator: Adobe Illustrator 25.4.1, SVG Export Plug-In . SVG Version: 6.00 Build 0)  -->
<svg version="1.1" id="Layer_1" xmlns="http://www.w3.org/2000/svg" xmlns:xlink="http://www.w3.org/1999/xlink" x="0px" y="0px"
	 viewBox="140 39.866 720 215.022" enable-background="new 140 39.866 720 215.022" xml:space="preserve">
<path fill="#11B0C8" d="M631.763,221.083c0.275-3.632-0.729-6.825-2.722-9.847c-2.032-3.074-3.046-6.398-1.517-10.062l0.243-0.833
	c0.899-3.302,0.486-6.352-1.953-8.884c-1.832-1.906-2.334-4.092-1.798-6.607c0.709-3.304,0.475-6.369-1.515-9.332
	c-1.725-2.571-2.023-5.41-0.652-8.452c1.157-2.554,1.913-5.31,2.646-8.028c0.571-2.117,0.577-4.36-0.224-6.42
	c-0.646-1.681-0.479-3.206-0.077-4.861c0.428-1.745,0.667-3.548,0.899-5.332c0.181-1.373-0.275-2.588-1.301-3.531
	c-1.348-1.236-1.813-2.773-1.591-4.524c0.269-2.009,0.658-3.997-0.392-5.932c-0.187-0.337-0.077-0.856-0.047-1.288
	c0.26-3.491-0.622-6.74-1.992-9.904c-0.786-1.823-1.118-3.741-0.912-5.725c0.4-3.849,0.156-7.691-0.513-11.462
	c-0.722-4.057-1.859-8.033-2.714-12.068c-0.298-1.396-0.492-2.864-0.405-4.277c0.177-2.882,0.524-5.76,0.909-8.628
	c0.466-3.457,1.312-6.81,2.803-9.998c1.431-3.086,2.758-6.222,4.083-9.355c0.475-1.132,0.882-2.303,1.167-3.496
	c0.347-1.435,0.33-2.882-0.539-4.187c-1.154-1.732-2.675-2.056-4.188-0.605c-1.231,1.197-2.396,2.563-3.223,4.057
	c-1.623,2.939-3.491,5.66-5.742,8.145c-1.568,1.732-2.237,3.798-2.334,6.157c-0.177,4.584-1.223,8.879-4.545,12.348
	c-0.946,0.99-1.776,2.105-2.539,3.245c-0.771,1.132-1.578,2.303-2.015,3.578c-1.041,3.002-2.173,6.027-2.705,9.146
	c-0.705,4.152-1.793,8.171-2.895,12.224c-0.914,3.366-2.48,6.132-4.839,8.56c-1.495,1.538-2.541,3.361-3.193,5.374
	c-0.782,2.411-1.465,4.848-2.117,7.299c-0.294,1.115-0.498,2.269-0.605,3.413c-0.501,5.479-0.899,10.967-1.455,16.432
	c-0.136,1.296-0.017,2.734-0.916,3.91l-0.384-0.335c-1.435-1.976-1.608-4.261-1.828-6.594c-0.511-5.47-1.067-10.927-0.846-16.436
	c0.064-1.663,0-3.332,0.051-4.995c0.043-1.361-0.526-2.372-1.555-3.185c-0.394-0.306-0.799-0.591-1.253-0.929
	c0.081-1.025,0.164-2.031,0.243-3.033c0.185-2.446-0.149-4.718-1.73-6.77c-0.565-0.726-0.81-1.876-0.803-2.827
	c0.021-2.453,0.251-4.913,0.447-7.363c0.151-2.031-0.581-3.681-1.998-5.077c-0.362-0.35-0.833-0.635-1.093-1.045
	c-0.405-0.639-0.993-1.378-0.954-2.043c0.124-2.372,0.332-4.761,0.794-7.086c0.364-1.832,1.197-3.565,1.721-5.371
	c0.941-3.267,1.927-6.52,2.669-9.834c0.381-1.695-0.462-2.878-1.889-3.521c-1.365-0.627-2.507-0.476-3.599,1.015
	c-1.881,2.559-3.64,5.224-5.236,7.958c-0.705,1.214-0.993,2.7-1.31,4.102c-0.524,2.35-1.084,4.688-2.839,6.467
	c-1.898,1.927-2.935,4.273-3.608,6.836c-0.108,0.423-0.324,0.82-0.575,1.434c-1.184-3.05-1.668-3.348-4.234-2.735
	c-0.092-0.416-0.126-0.852-0.286-1.236c-0.713-1.724-2.07-1.991-3.348-0.614c-0.535,0.57-1.08,1.227-1.344,1.948
	c-0.99,2.718-1.987,5.441-2.762,8.218c-0.769,2.787-1.157,5.677-1.904,8.468c-1.651,6.144-2.865,12.418-5.515,18.269
	c-0.322,0.712-0.445,1.525-0.59,2.302c-0.769,4.188-0.652,8.352,0.232,12.513c1.059,4.951,0.956,9.929,0.183,14.907
	c-0.494,3.218-2.381,5.702-4.417,8.083c-3.223,3.762-4.631,8.092-4.23,13.048c0.194,2.411,0.705,4.703,1.676,6.92
	c1.687,3.827,2.309,7.745,0.784,11.804c-0.256,0.675-0.443,1.393-0.528,2.104c-0.23,1.798-0.3,3.561,0.518,5.319
	c0.464,1.007,0.669,2.217,0.679,3.34c0.03,4.42-0.076,8.837-0.083,13.257c-0.004,0.78,0.141,1.585,0.354,2.341
	c0.298,1.097,0.937,1.996,2.109,2.268c1.269,0.294,2.047-0.535,2.703-1.429c1.176-1.604,2.006-3.376,2.205-5.367
	c0.362-3.581,1.538-6.891,2.937-10.171c0.632-1.495,0.892-3.21,0.999-4.844c0.207-3.205-0.498-6.334-1.163-9.453
	c-0.164-0.765-0.285-1.598-0.151-2.354c0.662-3.721,2.083-7.165,4.912-9.704c2.33-2.106,3.297-4.482,2.895-7.513
	c-0.09-0.722-0.034-1.465-0.186-2.17c-0.479-2.183-0.194-4.286,0.294-6.439c0.665-2.959,1.418-5.936,1.664-8.948
	c0.409-5.001,1.265-9.89,2.441-14.747c0.82-3.371,0.835-6.715-0.368-10.046c-1.167-3.241-1.063-6.525,0.066-9.804
	c0.562-1.638,0.871-3.358,1.412-5.003c0.596-1.824,1.01-3.759,2.705-5.613c0.138,1.051,0.328,1.728,0.298,2.389
	c-0.117,2.171-0.268,4.334-0.484,6.486c-0.271,2.796,0.326,5.193,2.805,6.831c1.103,0.722,1.668,1.763,1.881,3.042
	c0.219,1.284,0.863,2.494,1.964,3c2.611,1.206,3.046,3.447,3.289,5.88l0.064,0.648c0.515,4.329,1.276,8.551,3.427,12.474
	c0.869,1.581,0.986,3.591,1.37,5.419c0.258,1.195,0.151,2.514,0.609,3.615c0.903,2.19,0.752,4.366,0.522,6.62
	c-0.471,4.801,0.826,7.574,5.076,8.416c1.052,0.207,1.638,0.848,1.738,1.932c0.109,1.076,0.251,2.151,0.39,3.227
	c0.362,2.809,0.799,5.608,2.552,7.968c1.025,1.378,2.334,2.173,4.126,1.759c1.48-0.345,2.701-1.853,2.865-3.689
	c0.157-1.661,0.29-3.337,0.194-4.991c-0.26-4.511,1.063-8.559,3.212-12.448c0.612-1.11,1.097-2.39,1.269-3.644
	c0.313-2.285,0.42-4.609,0.488-6.921c0.126-4.173,0.878-8.075,4.235-10.991l0.435-0.484c3.016-4.131,4.724-8.594,3.664-13.813
	c-0.807-4.009-0.111-7.916,0.956-11.779c0.207-0.756,0.518-1.485,0.786-2.229c0.368,0.891,0.368,1.685,0.368,2.48
	c0.004,2.455,0.756,4.542,2.869,6.006c0.528,0.368,0.973,0.869,1.401,1.361c1.046,1.214,1.602,2.583,1.144,4.208
	c-0.424,1.534-0.852,3.064-1.318,4.589c-0.907,2.968-2.234,5.88-2.669,8.914c-0.618,4.302-0.407,8.679,1.27,12.841
	c0.341,0.86,0.686,1.779,0.743,2.692c0.111,2.096,0.171,4.207,0.038,6.3c-0.462,7.05,1.461,13.308,6.02,18.725
	c1.184,1.401,1.286,2.875,0.846,4.65c-0.601,2.437-1.003,4.946-1.193,7.449c-0.211,2.688,0.899,4.795,3.578,5.825l0.371,0.388
	c0,1.367,0.013,2.814-0.009,4.256c-0.021,1.919,0.614,3.574,2.066,4.831c1.14,0.993,2.311,2,3.604,2.779
	c1.318,0.799,1.715,1.823,1.525,3.274c-0.183,1.361-0.251,2.735-0.341,4.109c-0.074,1.154,0.215,2.17,1.331,2.752
	c1.033,0.539,1.789-0.087,2.562-0.645l0.418-0.025l0.277,0.303c1.265,1.274,2.081,1.489,3.203,0.85
	c1.114-0.641,1.346-1.572,0.941-3.197C631.953,223.085,631.69,222.056,631.763,221.083"/>
<path fill="#11B0C8" d="M285.877,229.441c-0.423-2.682-1.52-5.102-3.439-7.118c-2.307-2.439-3.716-5.261-3.932-8.691
	c-0.25-3.941-2.51-6.539-6.086-7.921c-1.176-0.458-2.01-1.076-2.571-2.147c-0.67-1.28-1.434-2.524-1.991-3.851
	c-0.709-1.68-1.945-2.811-3.608-3.18c-1.94-0.435-2.796-1.615-3.224-3.348c-0.159-0.635-0.375-1.257-0.47-1.902
	c-0.652-4.153-2.922-7.195-6.481-9.295c-1.137-0.673-1.702-1.612-2.238-2.775c-1.089-2.354-2.083-4.865-3.69-6.835
	c-2.29-2.805-5.172-4.965-9.242-3.357l-0.515-0.143c-0.492-1.031-0.938-2.181-1.56-3.227c-1.52-2.537-2.515-2.762-5.064-1.291
	l-0.349,0.021c-0.221-0.458-0.458-0.963-0.71-1.468c-0.872-1.745-1.654-3.548-2.647-5.223c-0.891-1.506-1.966-2.871-4.071-2.771
	c-0.535,0.025-1.093-0.475-2.04-0.92c1.059-0.735,1.607-1.223,2.238-1.535c1.966-0.982,3.452-2.407,4.195-4.481
	c0.337-0.934,0.964-1.452,1.807-1.712c1.032-0.316,2.095-0.596,3.167-0.691c2.886-0.26,4.8-1.979,6.204-4.243
	c1.448-2.334,2.515-4.891,2.965-7.649c0.229-1.425,0.479-2.722,1.948-3.589c0.696-0.41,1.128-1.496,1.383-2.359
	c0.312-1.098,0.446-2.286,0.433-3.427c-0.022-1.984,0.475-3.642,1.901-5.12c2.61-2.684,3.349-6.003,2.74-9.645
	c-0.493-2.941-0.804-5.823,0.289-8.766c1.301-3.483,0.471-6.58-2.506-8.927c-0.911-0.717-1.249-1.508-1.093-2.609
	c0.094-0.645,0.16-1.297,0.19-1.949c0.104-2.234,0.234-4.467,0.247-6.705c0-0.615-0.217-1.34-0.584-1.829
	c-2.587-3.434-4.666-4.484-8.317-3.209c-0.752,0.263-1.508,0.553-2.286,0.674c-1.257,0.207-1.702-0.199-1.837-1.464
	c-0.094-0.934-0.107-1.884-0.298-2.8c-0.381-1.923-1.491-2.857-3.465-2.959c-0.717-0.041-1.456-0.005-2.16,0.134
	c-2.182,0.428-4.057,0.065-5.829-1.439c-1.244-1.067-2.782-1.811-4.255-2.58c-2.563-1.339-5.202-2.531-7.747-3.902
	c-1.572-0.855-3.202-1.305-4.97-1.369c-0.864-0.035-1.754,0.087-2.601-0.065c-2.808-0.505-5.077,0.519-7.228,2.2
	c-2.398,1.871-4.84,3.693-7.346,5.418c-3.292,2.269-6.857,3.404-10.871,2.121l-0.847-0.172c-1.633-0.515-3.107-0.091-4.606,0.609
	c-2.415,1.132-4.425,2.747-6.14,4.748c-1.007,1.18-2.031,1.629-3.586,0.916c-1.383-0.627-2.182-0.367-2.839,0.717
	c-1.572,2.597-2.588,6.888,0.674,9.981c0.528,0.498,1.055,0.994,1.612,1.456c2.26,1.871,2.565,4.221,1.732,6.878
	c-0.363,1.171-0.765,2.347-0.981,3.548c-0.877,4.946-0.492,9.544,3.726,13.075c0.88,0.734,1.632,1.655,2.337,2.57
	c1.261,1.638,2.212,3.379,1.638,5.605c-0.433,1.676-0.618,3.413-1.041,5.085c-0.359,1.414-0.359,2.687,0.475,3.95
	c0.299,0.449,0.51,1.092,0.458,1.612c-0.138,1.356,0.152,2.579,0.735,3.78c0.627,1.283,0.678,2.558,0.273,3.983
	c-0.666,2.325-0.41,4.589,1.227,6.545c0.699,0.834,1.331,1.716,2.03,2.549c1.041,1.236,1.556,2.545,1.067,4.205
	c-0.553,1.874-0.263,3.663,0.583,5.465c1.798,3.832,2.965,7.894,2.982,12.141c0.004,2.407,0.233,4.927-1.209,7.161
	c-1.219,1.879-0.523,3.775,0.721,5.21c1.728,1.996,2.536,4.343,3.4,6.727c0.405,1.127,0.311,2.089-0.324,3.086
	c-1.906,3.003-2.009,6.226-1.236,9.613c0.545,2.381,1.616,4.499,2.911,6.503c0.925,1.431,1.62,2.908,1.879,4.575
	c0.217,1.418,0.778,2.605,1.902,3.548c0.354,0.298,0.699,0.801,0.738,1.246c0.234,2.358,0.795,4.684,0.117,7.103
	c-0.691,2.458-0.121,3.764,2.122,5.099c1.503,0.893,2.056,2.164,2.142,3.755c0.066,1.227-0.017,2.467,0.044,3.695
	c0.121,2.168,0.782,4.126,2.51,5.578c0.782,0.658,1.625,1.331,2.731,0.863c1.127-0.466,1.586-1.476,1.607-2.626
	c0.03-1.368-0.034-2.752-0.125-4.122c-0.156-2.388-0.069-4.656,2.385-6.006l0.32-0.29c2.576-2.552,2.843-5.233,1.055-8.403
	c-1.313-2.333-1.913-4.81-0.739-7.466c0.463-1.046,0.848-2.2,0.929-3.331c0.074-1.108-0.026-2.364-0.505-3.333
	c-0.929-1.866-2.152-3.595-3.305-5.348c-1.811-2.748-2.834-5.551-0.886-8.68l0.268-0.592c1.849-3.374,2.013-6.746-0.077-10.084
	c-0.639-1.022-0.722-2-0.004-3.029c1.335-1.893,1.071-3.785,0.029-5.721c-0.617-1.14-1.154-2.341-1.586-3.561
	c-0.829-2.334-0.077-3.751,2.701-4.737c1.102,1.202,2.29,2.563,3.543,3.864c1.862,1.927,4.178,2.669,6.737,1.94
	c1.927-0.549,3.068,0.251,4.005,1.668c0.998,1.512,1.845,3.12,2.869,4.605c0.817,1.18,1.707,2.343,2.744,3.327
	c1.084,1.042,1.931,0.905,3.016-0.141c2.013-1.96,2.445-1.996,4.368,0.004c1.055,1.11,2.19,1.902,3.78,1.712
	c1.188-0.147,1.944,0.351,2.416,1.391c1.007,2.237,2.087,4.447,3.011,6.714c1.158,2.852,3.072,3.751,5.833,2.584
	c0.398-0.168,0.787-0.364,1.193-0.528c1.559-0.63,1.719-0.662,2.613,0.85c1.102,1.862,2.108,3.791,3.033,5.751
	c1.24,2.616,3.28,4.332,6.033,4.814c1.676,0.298,2.557,1.086,3.231,2.445c0.351,0.714,0.774,1.397,1.124,2.109
	c1.625,3.297,3.465,6.373,7.263,7.596l0.726,0.467c1.872,1.295,3.639,2.639,3.764,5.231c0.129,2.577,1.183,4.901,2.143,7.251
	c0.656,1.604,1.611,2.895,3.158,3.725c1.257,0.678,2.113,1.689,2.613,3.055c0.48,1.287,1.059,2.545,1.668,3.772
	c0.851,1.702,2.398,2.761,3.482,2.475c1.128-0.298,1.724-1.538,1.668-3.668c-0.022-0.933-0.501-1.97-0.23-2.778
	C286.789,233.367,286.189,231.411,285.877,229.441 M219.955,137.291c-0.45,0.286-1.02,0.402-1.551,0.519
	c-1.18,0.276-2.411,0.393-3.556,0.774c-1.296,0.433-2.58,0.976-3.772,1.65c-0.916,0.523-1.802,1.219-2.463,2.026
	c-0.951,1.171-2.071,1.983-3.6,2.597c-0.519-0.436-1.015-0.951-1.598-1.344c-2.558-1.725-4.104-1.849-6.148-0.316
	c-0.558,0.419-1.21,0.7-2.313,1.322c0.208-1.365,0.264-2.255,0.494-3.099c0.211-0.76,0.643-1.455,0.924-2.199
	c0.864-2.281,0.6-3.236-1.481-4.559c-0.856-0.54-1.18-1.162-1.158-2.121c0.035-1.448,0.013-2.899,0.005-4.35
	c-0.008-2.139-0.86-3.738-2.856-4.702c-1.34-0.648-1.456-1.115-1.127-2.601c0.207-0.907,0.38-1.841,0.484-2.769
	c0.368-3.128-1.197-5.306-3.496-7.16c-0.393-0.316-0.794-0.916-0.782-1.379c0.053-2.217-0.686-4.432,0.183-6.658
	c0.549-1.414-0.346-2.546-1.305-3.458c-1.504-1.417-1.68-3.136-1.309-4.994c0.306-1.563,1.025-2.036,2.593-1.819
	c0.428,0.065,0.877,0.074,1.287,0.194c3.561,1.076,6.365-0.276,8.844-2.713c0.411-0.405,0.843-0.8,1.244-1.215
	c1.362-1.408,3.042-1.906,4.944-1.706c1.227,0.125,2.436,0.418,3.66,0.484c1.581,0.087,3.163,0.026,4.925,0.026
	c3.456,6.278,4.939,7.03,10.262,5.094c1.279,1.291,2.718,2.463,1.78,4.743c-0.428,1.051-0.039,2.17,0.709,3.047
	c1.028,1.214,2.056,2.433,3.184,3.551c0.765,0.765,1.698,1.361,2.576,2.048c-0.562,0.929-0.829,1.421-1.145,1.876
	c-1.283,1.854-1.538,3.15-0.142,4.749c1.927,2.199,0.916,4.515,0.804,6.827l-0.272,0.569c-1.374,1.547-2.775,3.081-4.144,4.632
	c-1.356,1.534-1.762,3.452-2.073,5.383c-0.181,1.141-0.246,2.304-0.428,3.449C221.895,135.174,221.269,136.47,219.955,137.291"/>
<path fill="#11B0C8" d="M849.317,135.844c-1.014-0.492-1.987-0.26-2.937,0.151c-2.45,1.059-4.935,2.057-7.315,3.255
	c-1.538,0.769-3.161,1.624-4.32,2.843c-3.625,3.827-8.844,5.218-12.733,8.602l-0.388,0.191c-3.483,1.402-6.901,3.016-10.475,4.143
	c-3.116,0.98-6.317,1.572-8.416,4.554c-0.053-0.777,0.017-1.408,0.232-1.988c0.641-1.706,0.347-3.278-0.583-4.765
	c-0.686-1.106-1.468-2.156-2.151-3.267c-0.33-0.532-0.737-1.153-0.728-1.724c0.036-1.421-0.596-2.454-1.389-3.544
	c-0.511-0.712-0.931-1.676-0.956-2.535c-0.134-4.481-0.113-8.962-0.2-13.438c-0.043-2.255-1.016-4.006-2.993-5.207
	c-0.575-0.35-1.22-0.955-1.387-1.56c-1.201-4.377-3.838-8.305-4.036-12.992c-0.026-0.497-0.174-1.007-0.351-1.473
	c-1.425-3.716-2.795-7.453-4.347-11.113c-0.639-1.513-1.632-2.899-2.605-4.243c-0.371-0.501-1.287-1.102-1.711-0.951
	c-0.622,0.211-1.314,1.007-1.438,1.656c-0.224,1.179-0.091,2.432-0.043,3.659c0.121,3.746,0.271,7.502,0.418,11.313
	c-2.36,0.527-2.929,2.1-2.795,3.984c0.181,2.519,0.475,5.024,0.762,7.53c0.162,1.434,0.53,2.853,0.573,4.286
	c0.079,2.822,0.032,5.651-0.017,8.473c-0.051,3.163,0.462,6.221,1.825,9.073c1.131,2.393,1.836,4.865,1.953,7.501
	c0.064,1.37,0.138,2.748,0.094,4.118c-0.038,1.355,0.454,2.422,1.495,3.214c0.726,0.55,1.557,0.959,2.762,1.685
	c-0.943,3.417-1.812,6.922-2.882,10.369c-1.023,3.31-2.411,6.486-1.465,10.133c0.432,1.645-0.23,2.32-1.872,2.886
	c-1.024,0.356-2.094,0.584-3.105,0.976c-2.624,1.023-5.295,1.962-7.817,3.208c-2.173,1.074-2.3,2.452-0.761,4.349l0.332,0.481
	l-0.249,0.405c-0.488,0.303-0.99,0.592-1.504,0.856c-3.28,1.698-5.928,4.143-8.266,6.944c-1.585,1.9-1.612,3.18-0.324,5.12
	c1.5,2.251,1.465,3.003-0.518,4.795c-2.411,2.187-4.884,4.309-7.363,6.413c-1.124,0.954-2.075,1.979-2.594,3.404
	c-0.172,0.481-0.59,1.055-1.035,1.216c-2.628,0.954-4.271,2.903-5.549,5.248c-1.137,2.092-2.658,3.794-4.782,4.897
	c-1.15,0.592-2.403,0.993-3.531,1.625c-5.042,2.82-9.183,6.795-13.304,10.754c-0.948,0.909-1.504,2.277-2.053,3.517
	c-0.575,1.284-0.85,2.658,0.479,3.759c1.12,0.926,2.454,0.929,4.039-0.004l0.886-0.622c2.939-2.467,5.828-4.986,8.814-7.393
	c1.108-0.895,2.351-1.768,3.678-2.207c2.592-0.865,5.276-1.483,7.955-2.083c2.893-0.658,5.413-1.842,7.513-4.045
	c2.79-2.939,5.747-5.721,8.646-8.56c0.462-0.449,0.959-0.903,1.508-1.231c1.874-1.131,3.244-2.739,4.03-4.714
	c1.393-3.508,3.708-6.36,6.105-9.172c1.076-1.267,2.268-2.447,3.27-3.774c0.637-0.839,1.219-1.817,1.47-2.829
	c0.794-3.129,2.582-5.419,5.244-7.165c3.691-2.428,7.312-4.939,10.984-7.397c1.608-1.071,2.784-2.475,3.655-4.203
	c0.55-1.084,1.25-2.121,2.028-3.059c2.234-2.701,5.097-4.367,8.482-5.363c5.427-1.595,9.283-5.163,11.724-10.222
	c0.641-1.321,1.612-2.217,2.788-2.933c0.795-0.494,1.662-0.892,2.541-1.22c2.548-0.959,4.718-2.475,6.756-4.26
	c1.195-1.046,2.456-2.079,3.843-2.818c4.2-2.22,7.907-5.098,11.342-8.338c2.002-1.884,3.911-3.875,5.772-5.893
	C851.224,137.841,850.881,136.6,849.317,135.844"/>
<path fill="#11B0C8" d="M496.411,174.947c-1.205-2.886-2.277-5.777-2.083-9.004c0.134-2.226-0.057-4.467,0.026-6.697
	c0.065-1.802,0.134-3.634,0.535-5.38c0.713-3.093,1.65-6.144,2.545-9.195c0.42-1.421,0.329-2.769-0.597-3.909
	c-1.313-1.629-1.455-3.452-1.01-5.336c0.554-2.316,1.297-4.593,1.91-6.896c0.22-0.825,0.47-1.693,0.428-2.533
	c-0.065-1.429-0.63-2.752-2.049-3.334c-1.512-0.628-2.864-0.044-3.902,1.119c-0.712,0.799-1.455,1.677-1.841,2.658
	c-0.682,1.737-1.17,3.564-1.62,5.383c-0.876,3.564-1.673,7.155-2.506,10.729l-0.289,0.816c-1.702,2.627-2.293,5.582-2.692,8.621
	c-0.203,1.576-1.037,2.614-2.519,3.491c-2.142,1.274-4.138,2.893-5.923,4.644c-1.694,1.655-3.05,3.655-4.546,5.508
	c0.043-1.265-0.025-2.548,0.195-3.775c0.769-4.26,1.66-8.503,2.485-12.763c0.41-2.125,0.856-4.261,1.123-6.408
	c0.134-1.12,0.117-2.346-0.203-3.413c-0.398-1.319-1.202-2.541-2.822-2.64c-1.542-0.104-2.596,0.738-3.34,2.013
	c-0.251,0.436-0.471,0.899-0.661,1.366c-1.901,4.714-3.79,9.432-5.811,14.467c-0.674-3.076-1.931-5.312-5.384-4.52
	c-1.21-2.009-1.508-4.097-1.918-6.139c-0.329-1.621-1.103-2.969-2.23-4.148c-0.873-0.912-1.978-0.912-3.025-0.528
	c-1.067,0.398-1.784,1.163-1.784,2.459c0,1.076-0.168,2.151-0.246,3.232c-0.131,1.793-0.346,3.59-0.354,5.383
	c-0.005,1.878,0.107,3.764,0.324,5.63c0.323,2.792-1.383,4.624-2.845,6.846c-0.721-1.47-1.442-2.654-1.901-3.938
	c-0.311-0.86-0.173-1.864-0.371-2.776c-0.316-1.41-0.791-2.78-1.11-4.189c-0.363-1.612-0.657-3.24-0.933-4.861
	c-0.134-0.786-0.095-1.593-0.239-2.371c-0.691-3.759-1.767-7.448-1.779-11.325c-0.005-1.21-0.178-2.458-0.488-3.629
	c-0.355-1.318-1.335-2.014-2.338-1.785c-1.283,0.298-2.571,0.729-3.262,1.961c-0.7,1.253-1.352,2.553-1.844,3.901
	c-0.519,1.422-0.826,2.921-1.214,4.39c-0.269,1.028-0.844,1.663-1.984,1.608c-2.087-0.095-3.137,1.213-3.879,2.894
	c-0.523,1.193-0.894,2.454-1.5,3.603c-1.595,3.055-1.996,6.162-0.678,9.415c0.45,1.11,0.553,2.243,0.134,3.383
	c-1.439,3.926-2.13,8.135-4.463,11.736c-0.462,0.712-0.869,1.576-0.938,2.407c-0.122,1.402-0.45,3.144,0.194,4.198
	c1.163,1.872,1.384,3.73,1.327,5.77c-0.018,0.428,0.043,0.877,0.143,1.291c0.336,1.331,1.383,2.281,2.527,2.343
	c1.262,0.06,2.039-0.588,2.511-2.222c0.35-1.193,0.769-2.294,1.698-3.201c1.08-1.063,1.309-2.464,0.778-3.834
	c-0.428-1.121-0.104-1.957,0.514-2.812c0.467-0.643,1.024-1.244,1.392-1.934c0.354-0.678,0.729-1.453,0.726-2.183
	c-0.022-2.437,1.287-4.173,2.696-6.062c0.492,0.375,0.786,0.735,1.162,0.869c1.724,0.592,2.336,2.021,2.817,3.564
	c0.678,2.211,1.202,4.481,2.048,6.622c1.158,2.952,2.549,5.809,3.863,8.703l0.535,0.678c0.717,0.76,1.56,0.967,2.567,0.626
	c1.326-0.437,2.12-1.34,2.13-2.705c0.009-2.886-0.091-5.777-0.169-8.667c-0.044-1.615-0.152-3.236-0.238-5.102
	c1.525,0.812,2.125,1.738,1.996,3.129c-0.061,0.643,0.052,1.312-0.047,1.947c-0.394,2.497,1.231,3.868,2.864,5.219
	c0.627,0.515,1.404,0.524,2.001-0.03c1.547-1.442,3.063-2.92,2.766-5.353c-0.083-0.63-0.1-1.318,0.056-1.926
	c0.6-2.337,0.381-4.584-0.532-6.788c-0.302-0.728-0.436-1.421,0.018-2.307c1.053,0.959,2.151,1.636,2.795,2.618
	c1.517,2.281,2.856,4.684,4.178,7.086c1.045,1.896,1.931,3.875,2.946,5.789c0.531,0.999,1.319,1.789,2.571,1.672
	c1.27-0.121,2.121-0.803,2.476-2.09c0.22-0.807,0.545-1.585,0.864-2.497l0.281,0.311l0.087,0.639
	c0.176,2.957,1.779,4.776,4.488,5.776c0.946,0.345,1.871,0.76,2.744,1.248c3.544,1.983,7.557,1.244,10.085-1.898
	c0.398-0.492,0.774-1.001,1.335-1.73c0.238,1.097,0.428,1.93,0.589,2.765c0.414,2.06,1.42,3.792,2.925,5.223
	c1.418,1.348,3.349,1.448,4.974,0.345c1.429-0.973,2.186-2.224,2.034-4.026C498.438,180.966,497.642,177.906,496.411,174.947
	 M427.365,155.598c1.257-3.348,2.441-6.484,3.62-9.626l0.562,0.143c0,1.65-0.238,3.344,0.065,4.939
	c0.285,1.468,1.153,2.831,1.893,4.545H427.365L427.365,155.598z M483.889,171.974c-0.73,0.605-1.278,1.431-1.97,2.096
	c-1.184,1.15-2.665,0.946-2.899-0.571c-0.22-1.404,0.16-2.92,0.393-4.369c0.229-1.417,0.816-2.431,2.382-3.057
	c1.395-0.571,2.496-1.862,4.108-3.125C486.266,166.44,486.835,169.524,483.889,171.974"/>
<path fill="#11B0C8" d="M394.138,108.097c-1.551,0.259-3.175,0.388-4.614,0.967c-1.728,0.692-3.444,1.612-4.913,2.753
	c-4.395,3.413-8.689,6.964-12.988,10.503c-1.067,0.881-1.996,1.966-3.539,1.819c-1.331-0.124-2.406,0.399-3.391,1.189
	c-1.581,1.261-3.111,2.601-4.71,3.845c-0.735,0.57-1.529,1.106-2.381,1.478c-1.43,0.631-2.924,1.12-4.411,1.672
	c-0.998-1.758-1.08-3.595-0.104-5.5c0.398-0.768,0.734-1.602,0.873-2.445c0.41-2.481,0.968-4.952-0.484-7.38
	c-0.435-0.726-0.289-1.81-0.368-2.739c-0.104-1.219,0.169-2.61-0.319-3.63c-0.821-1.697-0.518-3.18,0.022-4.765
	c0.206-0.618,0.433-1.232,0.6-1.858c0.748-2.762,0.99-5.562,0.418-8.382c-0.626-3.129-3.317-4.105-5.876-2.165
	c-0.462,0.347-0.92,0.692-1.339,1.008c-2.566-0.649-3.059-0.58-4.186,1.096c-0.506,0.752-0.877,1.695-0.985,2.589
	c-0.143,1.283,0.052,2.601,0.025,3.906c-0.074,4.044,0.276,8.171-0.402,12.111c-0.881,5.107-2.039,10.215-3.94,15.101
	c-0.57,1.464-0.743,3.085-1.097,4.631c-0.333,1.474-0.575,2.973-1.016,4.413c-0.687,2.271-1.568,4.488-2.251,6.77
	c-0.238,0.804-0.251,1.732-0.147,2.58c0.174,1.4,1.007,2.403,2.354,2.851c1.215,0.407,2.1-0.224,2.839-1.11
	c0.873-1.058,1.72-2.138,2.614-3.188c0.384-0.45,0.843-0.834,1.27-1.25l0.514,0.289c-0.303,1.227-0.626,2.46-0.907,3.7
	c-0.212,0.907-0.497,1.827-0.51,2.743c-0.044,3.37-0.519,6.582-2.32,9.549c-0.752,1.246-1.18,2.939,0.1,4.026
	c1.396,1.193,1.232,2.494,0.976,3.921c-0.8,4.488-1.612,8.969-2.459,13.446c-0.147,0.778-0.384,1.555-0.722,2.268
	c-1.167,2.45-1.564,5.082-2.152,7.696c-0.626,2.808,0.679,4.588,2.342,6.356c1.007,1.076,2.018,1.188,3.033,0.138
	c0.986-1.016,2.005-2.207,2.42-3.508c0.855-2.695,1.776-5.34,2.985-7.894c0.302-0.648,0.47-1.374,0.622-2.073
	c0.592-2.76,1.15-5.527,1.724-8.288c0.54-2.614,1.085-5.223,1.702-8.175c2.307,1.08,3.422-0.432,4.623-1.866
	c0.269-0.328,0.778-0.452,1.297-0.735c0.484,1.287,0.729,2.467,1.343,3.41c0.614,0.937,1.608,1.632,2.415,2.451l0.497,0.707
	c1.824,3.376,3.841,6.703,4.109,10.652c0.168,2.454,1.391,4.209,3.202,5.66c2.143,1.715,3.357,4.032,3.893,6.597
	c0.743,3.517,2.515,6.46,4.623,9.216c0.938,1.227,1.383,2.467,1.546,3.945c0.135,1.21,0.242,2.514,0.779,3.568
	c0.898,1.768,1.585,3.517,1.732,5.523c0.104,1.465,1.261,2.337,2.635,2.358c1.53,0.019,2.278-0.618,2.649-2.281
	c0.064-0.277,0.074-0.571,0.121-1.003c2.174,0.036,3.25-0.541,3.526-2.207c0.38-2.283,0.627-4.598-0.268-6.858
	c-0.428-1.076-0.777-2.181-1.14-3.283c-2.125-6.464-4.17-12.931-4.523-19.828c-0.091-1.628-0.973-3.34-1.876-4.771
	c-1.534-2.418-2.693-4.869-3.15-7.751c-0.622-3.896-2.217-5.267-6.102-5.915c-1.46-0.245-2.782-0.696-3.703-2.002
	c-2.087-2.957-4.234-5.873-6.342-8.808c-0.299-0.415-0.528-0.869-0.787-1.304c-0.704-1.167-1.361-2.364-2.113-3.497
	c-1.521-2.303-0.678-5.012,1.932-6.015c1.624-0.618,3.258-1.196,4.877-1.818c4.614-1.768,7.816-4.766,9.014-9.765
	c0.699-2.899,2.199-5.358,5.223-6.498c0.609-0.229,1.15-0.626,1.741-0.893c3.021-1.397,5.194-3.644,6.607-6.628
	c0.549-1.154,1.443-1.901,2.403-2.713c2.039-1.724,3.92-3.639,5.811-5.53c0.57-0.567,0.938-1.301,0.48-2.165
	C395.69,108.303,395.003,107.948,394.138,108.097"/>
<path fill="#11B0C8" d="M717.815,202.134c0.718-0.993,0.952-2.16,0.6-3.31c-0.564-1.859-1.199-3.706-1.955-5.5
	c-1.242-2.907-1.949-5.794-1.438-9.055c0.797-5.135-0.339-10.013-3.468-14.186c-1.338-1.783-1.827-3.474-1.533-5.596
	c0.187-1.346,0.174-2.733-0.622-4c-1.815-2.882-3.557-5.802-6.694-7.544c-1.097-0.605-1.058-1.906,0.023-2.626
	c0.66-0.437,1.448-0.666,2.143-1.056c1.255-0.696,2.579-1.326,3.709-2.199c1.41-1.089,2.905-1.854,4.658-2.187
	c0.679-0.13,1.331-0.489,1.955-0.825c2.117-1.141,3.504-2.969,4.714-4.987c0.705-1.175,0.958-2.407,0.81-3.743
	c-0.094-0.863-0.107-1.754-0.345-2.579c-0.337-1.158-0.579-2.511-1.344-3.34c-1.442-1.577-2.371-3.431-3.512-5.172
	c-0.692-1.067-0.946-1.893-0.198-3.124c1.101-1.806,0.669-3.418-0.869-4.869c-1.702-1.591-3.651-2.308-5.975-1.781
	c-1.941,0.436-3.738-0.022-5.453-0.893c-2.694-1.375-4.42-1.24-6.4,0.989c-2.009,2.269-3.781,4.754-5.647,7.147
	c-0.294,0.375-0.562,0.774-0.903,1.249c-1.129-1.037-1.039-2.286-1.184-3.478c-0.33-2.653-0.596-5.319-1.129-7.929
	c-0.315-1.55-1.361-2.225-2.575-2.234c-1.325-0.017-2.552,0.933-2.956,2.429c-0.164,0.596-0.094,1.262-0.117,1.897
	c-0.068,1.87-0.026,3.75-0.219,5.611c-0.368,3.591-1.154,7.161-1.246,10.755c-0.094,3.945-0.673,7.76-1.512,11.593
	c-0.281,1.3-0.134,2.713-0.047,4.07c0.107,1.745,1.148,2.882,2.648,3.707c1.866,1.02,2.311,2.286,1.514,4.313
	c-0.447,1.144-1.059,2.22-1.504,3.368c-0.765,1.972-0.892,4.002,0.168,5.887c1.144,2.043,1.18,4.004,0.535,6.243
	c-0.505,1.762-0.712,3.745-0.475,5.555c0.305,2.334,0.328,4.607,0.047,6.91c-0.117,0.933-0.228,1.896-0.109,2.812
	c0.1,0.729,0.403,1.562,0.895,2.094c1.845,1.989,4.801,1.516,5.851-1.063c0.605-1.498,0.85-3.227,0.876-4.852
	c0.043-2.52,0.554-4.822,1.587-7.129c0.752-1.678,1.024-3.595,1.372-5.427c0.207-1.107,0.147-2.256,0.194-3.072
	c0.515,0.381,1.154,0.822,1.772,1.295c2.929,2.243,5.042,5.151,6.844,8.328c0.675,1.188,1.461,2.377,2.43,3.321
	c2.073,2.025,2.865,4.403,2.726,7.248c-0.066,1.355-0.057,2.829,0.411,4.062c0.899,2.388,1.504,4.816,1.987,7.314
	c0.449,2.286,1.35,4.447,3.112,6.096C713.823,204.407,716.35,204.169,717.815,202.134 M700.994,139.256
	c-0.56,1.046-1.472,1.898-2.311,2.926c-0.511-0.359-0.967-0.518-1.154-0.838c-0.839-1.443-1.836-2.709-3.146-3.786
	c-0.479-0.392-0.488-1.347-0.756-2.186c2.251-0.523,3.497-1.716,4.256-3.608c1.291-3.192,2.013-3.522,6.341-3.111
	c-3.18,2.147-3.157,4.709-2.475,7.583C701.968,137.149,701.474,138.354,700.994,139.256"/>
<path fill="#11B0C8" d="M718.456,150.09c-1.661,0.435-2.356,1.589-2.028,3.24c0.381,1.919,1.544,3.003,3.483,2.831
	c1.693-0.153,3.072,0.452,4.567,1.02c2.251,0.856,3.97,2.963,6.784,2.622c-0.177,0.558-0.22,0.933-0.398,1.227
	c-1.133,1.93-1.552,4-1.621,6.226c-0.034,1.012-0.53,2.087-1.063,2.99c-0.712,1.219-0.941,2.437-0.573,3.741
	c0.288,1.041,0.622,2.1,1.15,3.033c0.626,1.11,0.66,2.019,0.119,3.22c-1.154,2.592-1.463,5.289-0.034,7.955
	c0.23,0.432,0.411,0.967,0.39,1.444c-0.16,3.101,0.09,6.328-0.692,9.268c-1.093,4.087-1.19,8.145-1.093,12.262
	c0.043,1.885,0.432,3.768,1.608,5.323c1.127,1.487,2.531,1.361,3.47-0.241c0.215-0.369,0.332-0.799,0.462-1.216
	c0.633-2.064,1.261-4.134,1.872-6.217c0.322-1.107,0.737-2.207,0.875-3.34c0.581-4.875,1.133-9.757,1.58-14.642
	c0.245-2.714,0.677-5.306,2.307-7.579c0.366-0.513,0.694-1.161,0.743-1.772c0.154-2.083,0.445-4.196-0.343-6.235
	c-0.362-0.933-0.318-1.823,0.177-2.703c1.487-2.648,1.629-5.483,1.267-8.422c-0.168-1.34-0.147-2.709-0.213-4.062l0.53-0.384
	c0.75,0.351,1.646,0.539,2.228,1.076c2.484,2.286,5.51,2.52,8.539,2.053c1.676-0.264,2.933-0.004,4.216,0.963
	c1.659,1.257,3.565,1.906,5.651,1.987c2.935,0.104,4.054-0.903,4.188-3.74c0.592-0.428,1.218-0.803,1.763-1.276
	c1.489-1.301,1.628-2.906,0.234-4.337c-0.682-0.705-1.578-1.31-2.494-1.655c-1.205-0.454-2.511-0.701-3.795-0.869
	c-0.92-0.121-1.61-0.432-2.22-1.144c-1.188-1.404-2.773-2.043-4.601-2.075c-1.369-0.021-2.743-0.004-4.143-0.004
	c-1.845-2.54-2.411-2.722-5.845-2.264c-1.474,0.189-2.986,0.562-4.707-0.19c0.351-1.115,0.581-2.252,1.056-3.263
	c1.425-3.04,2.388-6.226,2.984-9.5c0.65-3.565,1.34-7.095,3.025-10.353l0.13-0.415c0.375-2.501,0.449-4.908-1.698-6.796
	c-1.711-1.499-1.751-1.892-0.612-3.855c1.161-2.005,2.428-3.953,3.482-6.01c0.614-1.197,1.144-2.532,1.284-3.85
	c0.268-2.648-1.547-4.165-4.209-3.742c-2.381,0.38-3.807,1.91-4.754,4.015c-0.677,1.508-1.412,2.989-2.134,4.488
	c-1.849,3.837-3.796,7.626-4.343,11.961c-0.194,1.551-0.79,3.058-1.312,4.553c-0.809,2.338-1.47,4.706-1.425,7.2
	c0.025,1.702-0.347,3.284-1.103,4.813c-1.02,2.074-1.293,4.234-0.833,6.546c0.513,2.593-0.292,3.513-2.875,3.525
	c-1.408,0.005-2.76,0.134-3.885,1.08c-0.988,0.833-2.138,1.144-3.4,1.219C719.596,149.852,719.012,149.943,718.456,150.09"/>
<path fill="#11B0C8" d="M325.36,168.327c-2.588,1.862-4.278,1.881-6.901,0.047c-0.773-0.539-1.503-1.138-2.286-1.659
	c-1.369-0.916-2.804-1.22-4.208-0.077c-0.851,0.688-1.715,0.669-2.624,0.204c-1.525-0.792-2.951-0.488-4.311,0.375
	c-1.042,0.652-2.009,1.431-3.068,2.045c-1.46,0.837-2.813,0.064-2.834-1.612c-0.009-0.564,0.104-1.169,0.332-1.681
	c0.467-1.054,1.02-2.07,1.586-3.072c0.712-1.253,1.615-2.424,2.187-3.738c1.309-3.023,0.829-4.518-1.811-6.269
	c-0.298-0.198-0.6-0.388-1.081-0.699c0.376-2.801,2.174-4.447,4.074-6.041c2.549-2.135,5.124-4.243,7.579-6.486
	c1.374-1.256,2.286-2.829,1.327-4.791c1.369-0.864,2.748-1.193,4.23-1.18c1.232,0.009,2.464,0.013,3.694-0.035
	c3.111-0.121,5.825-1.109,7.734-3.711c0.809-1.106,1.184-2.368,0.502-3.669c-0.622-1.196-1.694-1.741-3.05-1.68
	c-2.382,0.103-4.766,0.138-7.138,0.35c-1.076,0.099-1.944,0.108-2.709-0.812c-0.839-1.007-2.006-1.34-3.323-1.257
	c-3.271,0.212-6.227,1.309-8.728,3.409c-0.773,0.649-1.538,1.707-1.663,2.662c-0.306,2.41-1.629,3.533-3.854,3.935l-1.033,0.319
	c-4.329,1.24-5.759,2.999-6.351,7.406c-0.242,1.841-0.489,3.824-1.336,5.414c-1.21,2.247-1.844,4.515-1.983,7.007
	c-0.087,1.647-0.726,3.069-1.849,4.294c-0.781,0.852-1.667,1.678-2.186,2.684c-0.683,1.318-1.27,2.765-1.509,4.226
	c-0.303,1.819,0.886,3.006,2.718,3.146c0.329,0.025,0.657,0.004,1.192,0.004c-0.471,0.809-0.942,1.378-1.167,2.04
	c-0.436,1.282-0.946,2.597-1.058,3.923c-0.177,2.073,0.808,3.042,2.921,3.206c1.01,0.083,2.026,0.036,3.041,0.057
	c2.109,0.053,2.77,0.748,2.36,2.812c-0.372,1.906,0.008,3.547,1.586,4.627c1.455,1.007,1.754,2.32,1.789,3.906
	c0.021,1.006,0.125,2.036,0.405,2.999c0.212,0.726,0.652,1.453,1.171,2.013c0.89,0.976,2.135,1.084,3.089,0.2
	c0.825-0.773,1.56-1.715,2.1-2.711c0.825-1.521,1.374-3.197,2.182-4.726c0.639-1.201,1.386-2.377,2.264-3.41
	c0.764-0.903,1.719-1.318,3.081-0.803c0.829,0.315,2.009,0.107,2.894-0.23c1.059-0.402,2.066-1.08,2.912-1.84
	c1.473-1.335,3.041-1.702,4.99-1.378c4.472,0.743,8.585-2.213,9.302-6.68c0.151-0.92-0.043-2.077-0.514-2.869
	C329.033,166.834,327.413,166.849,325.36,168.327"/>
<path fill="#11B0C8" d="M671.488,156.44c-1.585-1.913-1.975-3.745-0.909-5.975c0.679-1.435,1.38-2.891,1.798-4.412
	c1.042-3.733,0.965-7.414-0.912-10.945c-0.392-0.738-0.579-1.633-0.663-2.475c-0.2-1.794-0.812-3.284-2.143-4.593
	c-2.352-2.317-4.884-4.248-8.041-5.359c-4.347-1.52-8.382-1.015-11.745,2.083c-2.16,1.992-3.826,4.511-5.751,6.762
	c-0.595,0.694-1.244,1.409-2.004,1.893c-3.367,2.138-5.989,4.822-6.646,8.935c-0.388,2.406-1.231,4.493-2.861,6.416
	c-2.09,2.471-2.26,6.186-0.462,8.492c2.373,3.044,2.801,6.407,2.317,10.054c-0.19,1.429-0.281,2.873-0.445,4.614
	c0.185,1.295,0.241,2.907,0.679,4.411c0.503,1.745,1.896,2.662,3.438,2.268c1.802-0.467,3.056,0.368,4.416,1.219
	c1.084,0.682,2.207,1.321,3.384,1.83c0.692,0.304,1.178,0.624,1.542,1.336c1.163,2.277,2.588,3.037,5.155,2.541
	c1.97-0.385,3.853-1.14,5.926-0.752c0.458,0.087,1.046-0.091,1.461-0.335c2.107-1.252,4.52-2.222,6.196-3.911
	c2.99-3.012,5.721-6.339,8.201-9.796c1.482-2.064,2.575-4.501,1.885-7.336C674.646,160.716,673.174,158.486,671.488,156.44
	 M655.67,163.794c1.071,2.217,1.003,2.253,0.788,4.433c-1.338,0.13-2.741,0.264-3.99,0.377c-1.04-1.615-1.96-3.063-2.897-4.498
	c-0.795-1.201-1.781-2.145-3.336-2.07c-1.141,0.051-1.534-0.622-1.721-1.555c-0.198-0.992-0.36-1.993-0.564-2.982
	c-0.575-2.778,0.077-5.212,2.203-7.095c2.077-1.842,2.912-3.954,2.441-6.754c-0.371-2.212,1.191-3.531,3.071-4.451
	c-0.324,1.392-0.678,2.779-0.95,4.178c-0.562,2.845,0.622,4.926,2.918,6.49c0.539,0.368,1.131,0.649,1.666,1.022
	c1.378,0.95,1.659,1.753,1.133,3.348c-0.247,0.752-0.6,1.474-0.903,2.213C654.52,158.917,654.479,161.341,655.67,163.794"/>
<path fill="#11B0C8" d="M273.709,144.443c-0.082-2.722,0.385-5.322,1.349-7.859c0.714-1.876,1.084-3.858,0.177-5.711
	c-1.007-2.057-1.24-4.114-0.838-6.308v-0.869c-0.113-1.664-0.899-2.476-2.571-2.632c-1.491-0.129-2.86,0.208-4.122,1.051
	c-0.441,0.298-1.024,0.579-1.525,0.549c-2.631-0.16-3.612,0.57-3.28,3.106c0.354,2.747,0.026,5.323-0.933,7.872
	c-0.152,0.401-0.19,0.844-0.281,1.27c-0.329,1.56-0.113,2.891,1.525,3.63c1.041,0.471,1.283,1.396,1.106,2.359
	c-0.169,0.909-0.545,1.785-0.891,2.649c-0.587,1.478-1.313,2.904-1.818,4.402c-0.826,2.467-0.57,4.731,1.65,6.443
	c0.868,0.669,1.318,1.546,1.27,2.626c-0.094,2.162-0.1,4.335-0.397,6.469c-0.199,1.461-0.471,2.882,0.177,4.252
	c0.591,1.244,0.687,2.511,0.384,3.806c-0.367,1.591-0.035,3.016,0.847,4.335c0.799,1.189,1.088,2.497,1.049,3.913
	c-0.025,1.301-0.004,2.607-0.004,3.911h-0.06c0,1.521-0.047,3.046,0.013,4.567c0.074,1.84,0.484,3.602,1.814,4.982
	c1.473,1.521,3.233,1.342,4.36-0.428c0.298-0.484,0.576-1.05,0.635-1.604c0.194-1.713,0.488-3.461,0.363-5.167
	c-0.29-4.132,0.125-8.088,2.121-11.796c0.341-0.622,0.446-1.369,0.701-2.049c1.084-2.826,0.747-5.534-0.657-8.156l-0.203-0.386
	c-0.709-1.408-0.683-2.756,0.181-4.12c0.695-1.097,1.219-2.313,1.949-3.387c1.655-2.417,1.421-5.544-1.802-7.432
	C274.211,147.684,273.762,146.275,273.709,144.443"/>
<path fill="#11B0C8" d="M265.37,113.23c1.695,1.383,3.668,1.884,5.694,1.149c2.091-0.757,3.098-2.511,3.262-4.718
	c0.221-2.963,0.644-5.867,1.356-8.766c0.765-3.12-1.136-5.052-4.618-4.568c0.186-1.045,0.375-1.875,0.471-2.717
	c0.303-2.497-1.539-4.822-3.724-4.571c-1.668,0.19-3.22,0.804-4.403,2.118c-1.322,1.469-1.784,3.763-0.699,5.414
	c0.973,1.46,0.687,2.63-0.052,4.001c-0.757,1.396-1.473,2.842-1.936,4.347c-0.618,2.044-0.359,4.04,1.344,5.57
	C263.133,111.441,264.264,112.326,265.37,113.23"/>
<polyline fill="#11B0C8" points="759.001,228.265 759.001,228.681 757.804,228.681 757.804,231.799 757.32,231.799 757.32,228.681 
	756.123,228.681 756.123,228.265 "/>
<polyline fill="#11B0C8" points="759.329,228.265 760.011,228.265 761.037,231.25 762.051,228.265 762.73,228.265 762.73,231.799 
	762.281,231.799 762.281,229.731 762.285,229.35 762.285,228.819 761.271,231.799 760.798,231.799 759.757,228.819 759.757,228.923 
	759.784,229.32 759.784,231.799 759.329,231.799 "/>
</svg>
